<svg width="24" height="24" viewBox="0 0 24 24" fill="none" xmlns="http://www.w3.org/2000/svg">
<path d="M12.0027 5.8467C8.59667 5.8467 5.84937 8.594 5.84937 12C5.84937 15.406 8.59667 18.1533 12.0027 18.1533C15.4087 18.1533 18.156 15.406 18.156 12C18.156 8.594 15.4087 5.8467 12.0027 5.8467ZM12.0027 16.0004C9.80162 16.0004 8.00222 14.2064 8.00222 12C8.00222 9.7936 9.79627 7.99955 12.0027 7.99955C14.2091 7.99955 16.0031 9.7936 16.0031 12C16.0031 14.2064 14.2037 16.0004 12.0027 16.0004ZM19.8429 5.595C19.8429 6.39295 19.2003 7.03024 18.4077 7.03024C17.6097 7.03024 16.9724 6.38759 16.9724 5.595C16.9724 4.80241 17.6151 4.15977 18.4077 4.15977C19.2003 4.15977 19.8429 4.80241 19.8429 5.595ZM23.9183 7.05166C23.8273 5.12909 23.3881 3.42608 21.9797 2.02298C20.5766 0.619882 18.8736 0.180743 16.951 0.0843468C14.9695 -0.0281156 9.03045 -0.0281156 7.04897 0.0843468C5.13176 0.175388 3.42876 0.614526 2.0203 2.01763C0.611841 3.42073 0.178058 5.12373 0.0816612 7.0463C-0.0308011 9.02778 -0.0308011 14.9669 0.0816612 16.9483C0.172702 18.8709 0.611841 20.5739 2.0203 21.977C3.42876 23.3801 5.1264 23.8193 7.04897 23.9157C9.03045 24.0281 14.9695 24.0281 16.951 23.9157C18.8736 23.8246 20.5766 23.3855 21.9797 21.977C23.3828 20.5739 23.8219 18.8709 23.9183 16.9483C24.0308 14.9669 24.0308 9.03314 23.9183 7.05166ZM21.3585 19.0744C20.9408 20.1241 20.1321 20.9327 19.0771 21.3558C17.4973 21.9824 13.7485 21.8378 12.0027 21.8378C10.2568 21.8378 6.50273 21.977 4.92825 21.3558C3.8786 20.9381 3.06995 20.1294 2.64687 19.0744C2.0203 17.4946 2.16489 13.7458 2.16489 12C2.16489 10.2542 2.02565 6.50006 2.64687 4.92558C3.06459 3.87593 3.87325 3.06728 4.92825 2.6442C6.50808 2.01763 10.2568 2.16222 12.0027 2.16222C13.7485 2.16222 17.5026 2.02298 19.0771 2.6442C20.1267 3.06192 20.9354 3.87058 21.3585 4.92558C21.985 6.50541 21.8404 10.2542 21.8404 12C21.8404 13.7458 21.985 17.4999 21.3585 19.0744Z" fill="#565656"/>
</svg>
